<svg xmlns="http://www.w3.org/2000/svg" shape-rendering="crispEdges" viewBox="0 0 256 256" width="256" height="256">
	<rect fill="rgba(0,0,0,255)" x="64" y="0" width="16" height="16"/>
	<rect fill="rgba(0,0,0,255)" x="80" y="0" width="16" height="16"/>
	<rect fill="rgba(0,0,0,255)" x="96" y="0" width="16" height="16"/>
	<rect fill="rgba(0,0,0,255)" x="112" y="0" width="16" height="16"/>
	<rect fill="rgba(0,0,0,255)" x="128" y="0" width="16" height="16"/>
	<rect fill="rgba(0,0,0,255)" x="144" y="0" width="16" height="16"/>
	<rect fill="rgba(0,0,0,255)" x="160" y="0" width="16" height="16"/>
	<rect fill="rgba(0,0,0,255)" x="176" y="0" width="16" height="16"/>
	<rect fill="rgba(0,0,0,255)" x="48" y="16" width="16" height="16"/>
	<rect fill="rgba(0,0,0,255)" x="64" y="16" width="16" height="16"/>
	<rect fill="rgba(0,0,0,255)" x="80" y="16" width="16" height="16"/>
	<rect fill="rgba(0,0,0,255)" x="96" y="16" width="16" height="16"/>
	<rect fill="rgba(0,0,0,255)" x="112" y="16" width="16" height="16"/>
	<rect fill="rgba(0,0,0,255)" x="128" y="16" width="16" height="16"/>
	<rect fill="rgba(0,0,0,255)" x="144" y="16" width="16" height="16"/>
	<rect fill="rgba(0,0,0,255)" x="160" y="16" width="16" height="16"/>
	<rect fill="rgba(0,0,0,255)" x="176" y="16" width="16" height="16"/>
	<rect fill="rgba(0,0,0,255)" x="192" y="16" width="16" height="16"/>
	<rect fill="rgba(0,0,0,255)" x="32" y="32" width="16" height="16"/>
	<rect fill="rgba(0,0,0,255)" x="48" y="32" width="16" height="16"/>
	<rect fill="rgba(0,0,0,255)" x="64" y="32" width="16" height="16"/>
	<rect fill="rgba(0,0,0,255)" x="80" y="32" width="16" height="16"/>
	<rect fill="rgba(0,0,0,255)" x="96" y="32" width="16" height="16"/>
	<rect fill="rgba(0,0,0,255)" x="112" y="32" width="16" height="16"/>
	<rect fill="rgba(0,0,0,255)" x="128" y="32" width="16" height="16"/>
	<rect fill="rgba(0,0,0,255)" x="144" y="32" width="16" height="16"/>
	<rect fill="rgba(0,0,0,255)" x="160" y="32" width="16" height="16"/>
	<rect fill="rgba(0,0,0,255)" x="176" y="32" width="16" height="16"/>
	<rect fill="rgba(0,0,0,255)" x="192" y="32" width="16" height="16"/>
	<rect fill="rgba(0,0,0,255)" x="208" y="32" width="16" height="16"/>
	<rect fill="rgba(0,0,0,255)" x="16" y="48" width="16" height="16"/>
	<rect fill="rgba(0,0,0,255)" x="32" y="48" width="16" height="16"/>
	<rect fill="rgba(0,0,0,255)" x="48" y="48" width="16" height="16"/>
	<rect fill="rgba(0,0,0,255)" x="80" y="48" width="16" height="16"/>
	<rect fill="rgba(0,0,0,255)" x="96" y="48" width="16" height="16"/>
	<rect fill="rgba(0,0,0,255)" x="112" y="48" width="16" height="16"/>
	<rect fill="rgba(0,0,0,255)" x="128" y="48" width="16" height="16"/>
	<rect fill="rgba(0,0,0,255)" x="144" y="48" width="16" height="16"/>
	<rect fill="rgba(0,0,0,255)" x="160" y="48" width="16" height="16"/>
	<rect fill="rgba(0,0,0,255)" x="192" y="48" width="16" height="16"/>
	<rect fill="rgba(0,0,0,255)" x="208" y="48" width="16" height="16"/>
	<rect fill="rgba(0,0,0,255)" x="224" y="48" width="16" height="16"/>
	<rect fill="rgba(0,0,0,255)" x="16" y="64" width="16" height="16"/>
	<rect fill="rgba(0,0,0,255)" x="32" y="64" width="16" height="16"/>
	<rect fill="rgba(0,0,0,255)" x="48" y="64" width="16" height="16"/>
	<rect fill="rgba(0,0,0,255)" x="192" y="64" width="16" height="16"/>
	<rect fill="rgba(0,0,0,255)" x="208" y="64" width="16" height="16"/>
	<rect fill="rgba(0,0,0,255)" x="224" y="64" width="16" height="16"/>
	<rect fill="rgba(0,0,0,255)" x="16" y="80" width="16" height="16"/>
	<rect fill="rgba(0,0,0,255)" x="32" y="80" width="16" height="16"/>
	<rect fill="rgba(0,0,0,255)" x="48" y="80" width="16" height="16"/>
	<rect fill="rgba(0,0,0,255)" x="192" y="80" width="16" height="16"/>
	<rect fill="rgba(0,0,0,255)" x="208" y="80" width="16" height="16"/>
	<rect fill="rgba(0,0,0,255)" x="224" y="80" width="16" height="16"/>
	<rect fill="rgba(0,0,0,255)" x="0" y="96" width="16" height="16"/>
	<rect fill="rgba(0,0,0,255)" x="16" y="96" width="16" height="16"/>
	<rect fill="rgba(0,0,0,255)" x="32" y="96" width="16" height="16"/>
	<rect fill="rgba(0,0,0,255)" x="208" y="96" width="16" height="16"/>
	<rect fill="rgba(0,0,0,255)" x="224" y="96" width="16" height="16"/>
	<rect fill="rgba(0,0,0,255)" x="240" y="96" width="16" height="16"/>
	<rect fill="rgba(0,0,0,255)" x="0" y="112" width="16" height="16"/>
	<rect fill="rgba(0,0,0,255)" x="16" y="112" width="16" height="16"/>
	<rect fill="rgba(0,0,0,255)" x="32" y="112" width="16" height="16"/>
	<rect fill="rgba(0,0,0,255)" x="208" y="112" width="16" height="16"/>
	<rect fill="rgba(0,0,0,255)" x="224" y="112" width="16" height="16"/>
	<rect fill="rgba(0,0,0,255)" x="240" y="112" width="16" height="16"/>
	<rect fill="rgba(0,0,0,255)" x="0" y="128" width="16" height="16"/>
	<rect fill="rgba(0,0,0,255)" x="16" y="128" width="16" height="16"/>
	<rect fill="rgba(0,0,0,255)" x="32" y="128" width="16" height="16"/>
	<rect fill="rgba(0,0,0,255)" x="208" y="128" width="16" height="16"/>
	<rect fill="rgba(0,0,0,255)" x="224" y="128" width="16" height="16"/>
	<rect fill="rgba(0,0,0,255)" x="240" y="128" width="16" height="16"/>
	<rect fill="rgba(0,0,0,255)" x="0" y="144" width="16" height="16"/>
	<rect fill="rgba(0,0,0,255)" x="16" y="144" width="16" height="16"/>
	<rect fill="rgba(0,0,0,255)" x="32" y="144" width="16" height="16"/>
	<rect fill="rgba(0,0,0,255)" x="208" y="144" width="16" height="16"/>
	<rect fill="rgba(0,0,0,255)" x="224" y="144" width="16" height="16"/>
	<rect fill="rgba(0,0,0,255)" x="240" y="144" width="16" height="16"/>
	<rect fill="rgba(0,0,0,255)" x="0" y="160" width="16" height="16"/>
	<rect fill="rgba(0,0,0,255)" x="16" y="160" width="16" height="16"/>
	<rect fill="rgba(0,0,0,255)" x="32" y="160" width="16" height="16"/>
	<rect fill="rgba(0,0,0,255)" x="48" y="160" width="16" height="16"/>
	<rect fill="rgba(0,0,0,255)" x="192" y="160" width="16" height="16"/>
	<rect fill="rgba(0,0,0,255)" x="208" y="160" width="16" height="16"/>
	<rect fill="rgba(0,0,0,255)" x="224" y="160" width="16" height="16"/>
	<rect fill="rgba(0,0,0,255)" x="240" y="160" width="16" height="16"/>
	<rect fill="rgba(0,0,0,255)" x="16" y="176" width="16" height="16"/>
	<rect fill="rgba(0,0,0,255)" x="32" y="176" width="16" height="16"/>
	<rect fill="rgba(0,0,0,255)" x="48" y="176" width="16" height="16"/>
	<rect fill="rgba(0,0,0,255)" x="64" y="176" width="16" height="16"/>
	<rect fill="rgba(0,0,0,255)" x="176" y="176" width="16" height="16"/>
	<rect fill="rgba(0,0,0,255)" x="192" y="176" width="16" height="16"/>
	<rect fill="rgba(0,0,0,255)" x="208" y="176" width="16" height="16"/>
	<rect fill="rgba(0,0,0,255)" x="224" y="176" width="16" height="16"/>
	<rect fill="rgba(0,0,0,255)" x="16" y="192" width="16" height="16"/>
	<rect fill="rgba(0,0,0,255)" x="32" y="192" width="16" height="16"/>
	<rect fill="rgba(0,0,0,255)" x="64" y="192" width="16" height="16"/>
	<rect fill="rgba(0,0,0,255)" x="80" y="192" width="16" height="16"/>
	<rect fill="rgba(0,0,0,255)" x="96" y="192" width="16" height="16"/>
	<rect fill="rgba(0,0,0,255)" x="144" y="192" width="16" height="16"/>
	<rect fill="rgba(0,0,0,255)" x="160" y="192" width="16" height="16"/>
	<rect fill="rgba(0,0,0,255)" x="176" y="192" width="16" height="16"/>
	<rect fill="rgba(0,0,0,255)" x="192" y="192" width="16" height="16"/>
	<rect fill="rgba(0,0,0,255)" x="208" y="192" width="16" height="16"/>
	<rect fill="rgba(0,0,0,255)" x="224" y="192" width="16" height="16"/>
	<rect fill="rgba(0,0,0,255)" x="32" y="208" width="16" height="16"/>
	<rect fill="rgba(0,0,0,255)" x="48" y="208" width="16" height="16"/>
	<rect fill="rgba(0,0,0,255)" x="160" y="208" width="16" height="16"/>
	<rect fill="rgba(0,0,0,255)" x="176" y="208" width="16" height="16"/>
	<rect fill="rgba(0,0,0,255)" x="192" y="208" width="16" height="16"/>
	<rect fill="rgba(0,0,0,255)" x="208" y="208" width="16" height="16"/>
	<rect fill="rgba(0,0,0,255)" x="48" y="224" width="16" height="16"/>
	<rect fill="rgba(0,0,0,255)" x="64" y="224" width="16" height="16"/>
	<rect fill="rgba(0,0,0,255)" x="80" y="224" width="16" height="16"/>
	<rect fill="rgba(0,0,0,255)" x="96" y="224" width="16" height="16"/>
	<rect fill="rgba(0,0,0,255)" x="160" y="224" width="16" height="16"/>
	<rect fill="rgba(0,0,0,255)" x="176" y="224" width="16" height="16"/>
	<rect fill="rgba(0,0,0,255)" x="192" y="224" width="16" height="16"/>
	<rect fill="rgba(0,0,0,255)" x="64" y="240" width="16" height="16"/>
	<rect fill="rgba(0,0,0,255)" x="80" y="240" width="16" height="16"/>
	<rect fill="rgba(0,0,0,255)" x="96" y="240" width="16" height="16"/>
	<rect fill="rgba(0,0,0,255)" x="160" y="240" width="16" height="16"/>
	<rect fill="rgba(0,0,0,255)" x="176" y="240" width="16" height="16"/>
</svg>